0
SECTION
2
HEADER
9
$INSUNITS
70
4
9
$ACADVER
1
AC1014
9
$HANDSEED
5
FFFF
0
ENDSEC
0
SECTION
2
TABLES
0
TABLE
2
VPORT
5
8
100
AcDbSymbolTable
0
ENDTAB
0
TABLE
2
LTYPE
5
5
100
AcDbSymbolTable
0
LTYPE
5
14
100
AcDbSymbolTableRecord
100
AcDbLinetypeTableRecord
2
BYBLOCK
70
0
0
LTYPE
5
15
100
AcDbSymbolTableRecord
100
AcDbLinetypeTableRecord
2
BYLAYER
70
0
0
LTYPE
5
16
100
AcDbSymbolTableRecord
100
AcDbLinetypeTableRecord
2
DASHED
70
0
3
Dashed __ __ __ __ __ __ __ __ __ __ __ __ __ _
72
65
73
2
40
0.75
49
0.5
74
0
49
-0.25
74
0
0
ENDTAB
0
TABLE
2
LAYER
5
2
100
AcDbSymbolTable
70
2
0
LAYER
5
50
100
AcDbSymbolTableRecord
100
AcDbLayerTableRecord
2
0
70
0
62
7
6
CONTINUOUS
0
ENDTAB
0
TABLE
2
STYLE
5
3
100
AcDbSymbolTable
70
1
0
STYLE
5
11
100
AcDbSymbolTableRecord
100
AcDbTextStyleTableRecord
2
STANDARD
70
0
0
ENDTAB
0
TABLE
2
VIEW
5
6
100
AcDbSymbolTable
70
0
0
ENDTAB
0
TABLE
2
UCS
5
7
100
AcDbSymbolTable
70
0
0
ENDTAB
0
TABLE
2
APPID
5
9
100
AcDbSymbolTable
70
2
0
APPID
5
12
100
AcDbSymbolTableRecord
100
AcDbRegAppTableRecord
2
ACAD
70
0
0
ENDTAB
0
TABLE
2
DIMSTYLE
5
A
100
AcDbSymbolTable
70
1
0
ENDTAB
0
TABLE
2
BLOCK_RECORD
5
1
100
AcDbSymbolTable
70
1
0
BLOCK_RECORD
5
1F
100
AcDbSymbolTableRecord
100
AcDbBlockTableRecord
2
*MODEL_SPACE
0
BLOCK_RECORD
5
1B
100
AcDbSymbolTableRecord
100
AcDbBlockTableRecord
2
*PAPER_SPACE
0
ENDTAB
0
ENDSEC
0
SECTION
2
BLOCKS
0
BLOCK
5
20
100
AcDbEntity
100
AcDbBlockBegin
2
*MODEL_SPACE
0
ENDBLK
5
21
100
AcDbEntity
100
AcDbBlockEnd
0
BLOCK
5
1C
100
AcDbEntity
100
AcDbBlockBegin
2
*PAPER_SPACE
0
ENDBLK
5
1D
100
AcDbEntity
100
AcDbBlockEnd
0
ENDSEC
0
SECTION
2
ENTITIES
0
LWPOLYLINE
5
100
100
AcDbEntity
8
0
100
AcDbPolyline
90
24
70
1
43
0.0
10
-77.568750000000023
20
-44.637500000000038
42
0.41421356237307422
10
-77.318750000000023
20
-44.387500000000031
10
-77.318750000000023
20
-43.632500000000014
42
-0.41421356237309503
10
-77.068750000000023
20
-43.382500000000014
10
-70.568749999999994
20
-43.382499999999993
42
-0.41421356237309503
10
-70.318749999999994
20
-43.6325
10
-70.318749999999994
20
-44.387500000000017
42
0.41421356237307422
10
-70.068749999999994
20
-44.637500000000017
10
-53.756250000000009
20
-44.637500000000017
42
0.41421356237307422
10
-53.506250000000009
20
-44.387500000000017
10
-53.506250000000009
20
-43.6325
42
-0.41421356237309503
10
-53.256250000000009
20
-43.382499999999993
10
-46.756250000000051
20
-43.382499999999993
42
-0.41421356237309503
10
-46.506250000000051
20
-43.6325
10
-46.506250000000051
20
-44.387500000000017
42
0.41421356237307422
10
-46.256250000000051
20
-44.637500000000017
10
-45.256249999999994
20
-44.637500000000017
42
-0.41421356237309503
10
-45.006249999999994
20
-44.887500000000024
10
-45.006249999999994
20
-58.387500000000003
42
-0.41421356237309503
10
-45.256249999999994
20
-58.637500000000003
10
-80.568750000000037
20
-58.637500000000024
42
-0.41421356237309503
10
-80.818750000000037
20
-58.387500000000017
10
-80.818750000000051
20
-44.887500000000038
42
-0.41421356237309503
10
-80.568750000000051
20
-44.637500000000038
0
LWPOLYLINE
5
101
100
AcDbEntity
8
0
100
AcDbPolyline
90
51
70
1
43
0.0
10
-160.57538471842278
20
-27.390462943101706
42
0.41400211797233522
10
-160.76798115868689
20
-27.094124682127351
10
-163.9547720408064
20
-26.416751369496374
10
-165.08602363106888
20
-26.176950780316627
42
0.41405145554793316
10
-165.38240309506378
20
-26.369538490063611
10
-165.53924335366148
20
-27.107413893009035
42
-0.41421356237309431
10
-165.83575817655105
20
-27.299972870485462
10
-169.01473787893002
20
-26.624259875300027
10
-173.67316580168
20
-25.634080734000044
10
-176.852145504059
20
-24.958367738814577
42
-0.41421356237308454
10
-177.04470448153543
20
-24.661852915924996
10
-176.88789292760526
20
-23.924112557822575
42
0.41421356237307511
10
-177.08045190508173
20
-23.627597734933005
10
-180.00655514072503
20
-23.005635292046456
42
-0.41421356237308782
10
-180.19911411820146
20
-22.709120469156879
10
-177.3923062920465
20
-9.5041278592750018
42
-0.4142135623730861
10
-177.09579146915689
20
-9.3115688817985802
10
-163.64626195909204
20
-12.170354630660114
10
-161.04400836949645
20
-12.722684959193664
10
-147.04745136933994
20
-15.687184959092022
10
-123.90814718944087
20
-20.605595895219111
42
-0.41421356237310014
10
-123.71558821196444
20
-20.90211071810868
10
-126.52239603811942
20
-34.107103327990586
42
-0.4142135623731103
10
-126.81891086100902
20
-34.29966230546701
10
-127.79705846174093
20
-34.091750614640695
42
0.41421356237311757
10
-128.09357328463051
20
-34.284309592117111
10
-128.25054661119145
20
-35.022811030609049
42
-0.41421356237309076
10
-128.547061434081
20
-35.215370008085472
10
-131.72604113646008
20
-34.539657012900015
10
-136.40574221371998
20
-33.555516154200042
10
-139.58464469327686
20
-32.879819573232176
42
-0.41421356237309903
10
-139.77720367075329
20
-32.583304750342606
10
-139.61808271127225
20
-31.834699493351295
42
0.4142135623730685
10
-139.81064168874869
20
-31.538184670461717
10
-141.79146788591601
20
-31.117147064707847
42
0.41421356237573209
10
-142.08798270880609
20
-31.309706042186519
10
-142.24710361118701
20
-32.058311030577016
42
-0.41421356237308488
10
-142.5436184340748
20
-32.250870008056168
10
-148.90157783884521
20
-30.899444017743868
42
-0.41421356237308377
10
-149.09413681632435
20
-30.602929194856085
10
-148.93501591392936
20
-29.854324206399177
42
0.41421356236992962
10
-149.12757489140591
20
-29.557809383511948
10
-149.95821504090799
20
-29.3812513693399
10
-151.09025662721285
20
-29.141482597459202
42
0.41421356237312773
10
-151.38663235096931
20
-29.334255599634925
10
-151.54233843661447
20
-30.069404563399097
42
-0.41421356237310308
10
-151.83871416037093
20
-30.26217756557482
10
-157.35854707634161
20
-29.093065427593324
10
-157.36049087893002
20
-29.102242875300021
10
-160.53977423582012
20
-28.428864021409616
42
-0.4142135623730932
10
-160.73254723799582
20
-28.132488297653172
0
LWPOLYLINE
5
102
100
AcDbEntity
8
0
100
AcDbPolyline
90
24
70
1
43
0.0
10
-317.96875
20
-101.53750000000004
42
0.41421356237307422
10
-317.71875
20
-101.78750000000008
10
-316.71875
20
-101.78750000000005
42
-0.41421356237309503
10
-316.46875
20
-102.03750000000002
10
-316.46875
20
-115.53750000000002
42
-0.41421356237309503
10
-316.71875
20
-115.78750000000002
10
-350.03125000000006
20
-115.78750000000002
42
-0.41421356237309503
10
-350.28125
20
-115.53750000000005
10
-350.28124999999994
20
-102.03750000000005
42
-0.41421356237309503
10
-350.03125
20
-101.78750000000005
10
-349.03125
20
-101.78750000000005
42
0.41421356237292856
10
-348.78125000000006
20
-101.53750000000005
10
-348.78125000000006
20
-100.78250000000006
42
-0.41421356237309503
10
-348.53125000000006
20
-100.53250000000006
10
-342.03125
20
-100.53250000000006
42
-0.41421356237309503
10
-341.78125
20
-100.78250000000004
10
-341.78125
20
-101.53750000000004
42
0.41421356237294937
10
-341.53125
20
-101.78750000000005
10
-325.21875
20
-101.78750000000005
42
0.41421356237297013
10
-324.96875
20
-101.53750000000005
10
-324.96874999999994
20
-100.78250000000006
42
-0.41421356237309503
10
-324.71875
20
-100.53250000000006
10
-318.21875
20
-100.53250000000006
42
-0.41421356237309503
10
-317.96875
20
-100.78250000000004
0
LWPOLYLINE
5
103
100
AcDbEntity
8
0
100
AcDbPolyline
90
24
70
1
43
0.0
10
-355.92500000000007
20
-77.937500000000057
42
0.41421356237293894
10
-356.17500000000007
20
-77.687500000000057
10
-357.17500000000001
20
-77.687500000000028
42
-0.41421356237309503
10
-357.42500000000001
20
-77.437500000000043
10
-357.42500000000001
20
-63.937500000000014
42
-0.41421356237309503
10
-357.17500000000001
20
-63.687500000000014
10
-321.86250000000007
20
-63.687500000000028
42
-0.41421356237309503
10
-321.61250000000007
20
-63.937500000000014
10
-321.61250000000018
20
-77.437500000000043
42
-0.41421356237309503
10
-321.86250000000018
20
-77.687500000000057
10
-324.86250000000013
20
-77.687500000000057
42
0.41421356237293894
10
-325.11250000000013
20
-77.937500000000057
10
-325.11250000000013
20
-78.692500000000038
42
-0.41421356237309503
10
-325.36250000000007
20
-78.942500000000038
10
-331.86250000000007
20
-78.942500000000038
42
-0.41421356237309503
10
-332.11250000000007
20
-78.692500000000052
10
-332.11250000000007
20
-77.937500000000057
42
0.41421356237293894
10
-332.36250000000013
20
-77.687500000000057
10
-348.67499999999995
20
-77.687500000000057
42
0.41421356237293894
10
-348.9249999999999
20
-77.937500000000057
10
-348.9249999999999
20
-78.692500000000052
42
-0.41421356237309503
10
-349.1749999999999
20
-78.942500000000052
10
-355.67500000000001
20
-78.942500000000038
42
-0.41421356237309503
10
-355.92500000000001
20
-78.692500000000052
0
LWPOLYLINE
5
104
100
AcDbEntity
8
0
100
AcDbPolyline
90
24
70
1
43
0.0
10
-402.75625000000014
20
-39.837500000000063
42
0.41421356237295975
10
-403.00625000000014
20
-39.587500000000048
10
-419.31875000000002
20
-39.587500000000063
42
0.41421356237295454
10
-419.56875000000002
20
-39.83750000000007
10
-419.56875000000002
20
-40.592500000000065
42
-0.41421356237309503
10
-419.81875000000002
20
-40.842500000000072
10
-426.31875000000014
20
-40.842500000000051
42
-0.41421356237309503
10
-426.56875000000014
20
-40.592500000000065
10
-426.56875000000014
20
-39.837500000000063
42
0.41421356237295975
10
-426.81875000000019
20
-39.587500000000048
10
-427.81875000000008
20
-39.587500000000048
42
-0.41421356237309503
10
-428.06875000000002
20
-39.337500000000063
10
-428.06874999999997
20
-25.837500000000041
42
-0.41421356237309503
10
-427.81875000000002
20
-25.587500000000041
10
-394.50625000000002
20
-25.587500000000063
42
-0.41421356237309503
10
-394.25625000000002
20
-25.837500000000048
10
-394.25625000000002
20
-39.337500000000063
42
-0.41421356237309503
10
-394.50625000000002
20
-39.587500000000063
10
-395.50625000000002
20
-39.587500000000063
42
0.41421356237299617
10
-395.75624999999997
20
-39.83750000000007
10
-395.75625000000008
20
-40.592500000000065
42
-0.41421356237309503
10
-396.00625000000008
20
-40.842500000000072
10
-402.50625000000008
20
-40.842500000000051
42
-0.41421356237309503
10
-402.75625000000002
20
-40.592500000000065
0
LWPOLYLINE
5
105
100
AcDbEntity
8
0
100
AcDbPolyline
90
8
70
1
43
0.0
10
-81.356249999999989
20
-96.737500000000011
10
-94.856249999999974
20
-96.73750000000004
42
-0.41421356237309503
10
-95.106249999999974
20
-96.48750000000004
10
-95.106250000000045
20
-82.987499999999997
42
-0.41421356237309503
10
-94.856250000000045
20
-82.737499999999997
10
-81.35625000000006
20
-82.737499999999983
42
-0.41421356237309503
10
-81.10625000000006
20
-82.987499999999983
10
-81.106249999999989
20
-96.487500000000011
42
-0.41421356237309503
0
LWPOLYLINE
5
106
100
AcDbEntity
8
0
100
AcDbPolyline
90
8
70
1
43
0.0
10
-293.03750000000002
20
-82.987500000000011
10
-293.03750000000002
20
-96.487500000000054
42
-0.41421356237309503
10
-293.28750000000002
20
-96.737500000000054
10
-306.78750000000002
20
-96.737500000000054
42
-0.41421356237309503
10
-307.03750000000002
20
-96.487500000000068
10
-307.03750000000008
20
-82.98750000000004
42
-0.41421356237309503
10
-306.78750000000002
20
-82.73750000000004
10
-293.28750000000002
20
-82.73750000000004
42
-0.41421356237309503
0
LWPOLYLINE
5
107
100
AcDbEntity
8
0
100
AcDbPolyline
90
8
70
1
43
0.0
10
-237.42207885931464
20
-107.25936029210524
10
-250.62707146921713
20
-110.06616811816393
42
-0.41421356237309503
10
-250.92358629210531
20
-109.87360914068535
10
-253.73039411816393
20
-96.66861653078297
42
-0.41421356237309503
10
-253.53783514068536
20
-96.372101707894799
10
-240.33284253078295
20
-93.565293881836169
42
-0.41421356237309503
10
-240.0363277078948
20
-93.757852859314738
10
-237.22951988183607
20
-106.9628454692171
42
-0.41421356237308332
0
LWPOLYLINE
5
108
100
AcDbEntity
8
0
100
AcDbPolyline
90
8
70
1
43
0.0
10
-114.44309746923301
20
-81.055575881846067
10
-101.2381048593253
20
-83.862383707879275
42
-0.41421356237309503
10
-101.04554588184614
20
-84.158898530767061
10
-103.85235370787932
20
-97.363891140674809
42
-0.41421356237309936
10
-104.1488685307671
20
-97.556450118153975
10
-117.35386114067488
20
-94.749642292120754
42
-0.41421356237309503
10
-117.54642011815405
20
-94.453127469232953
10
-114.73961229212078
20
-81.248134859325191
42
-0.41421356237308332
0
LWPOLYLINE
5
109
100
AcDbEntity
8
0
100
AcDbPolyline
90
8
70
1
43
0.0
10
-283.51249999999999
20
-63.937500000000014
10
-283.51249999999999
20
-77.437500000000043
42
-0.41421356237309503
10
-283.76249999999999
20
-77.687500000000057
10
-297.26249999999999
20
-77.687500000000028
42
-0.41421356237309503
10
-297.51249999999999
20
-77.437500000000043
10
-297.51249999999999
20
-63.937500000000014
42
-0.41421356237309503
10
-297.26249999999999
20
-63.687500000000014
10
-283.76249999999999
20
-63.687500000000028
42
-0.41421356237309503
0
LWPOLYLINE
5
110
100
AcDbEntity
8
0
100
AcDbPolyline
90
24
70
1
43
0.0
10
-432.73750000000001
20
-26.424500000000052
42
0.41421356237295975
10
-432.48750000000001
20
-26.674500000000062
10
-431.73250000000007
20
-26.674500000000066
42
-0.41421356237309503
10
-431.48250000000013
20
-26.924500000000052
10
-431.48250000000013
20
-33.424500000000059
42
-0.41421356237309503
10
-431.73250000000007
20
-33.674500000000059
10
-432.48750000000007
20
-33.674500000000059
42
0.41421356237299617
10
-432.73750000000001
20
-33.924500000000066
10
-432.73750000000007
20
-50.300500000000056
42
0.41421356237293894
10
-432.48750000000001
20
-50.550500000000049
10
-431.73250000000007
20
-50.550500000000078
42
-0.41421356237309503
10
-431.48250000000013
20
-50.800500000000063
10
-431.48250000000013
20
-57.300500000000063
42
-0.41421356237309503
10
-431.73250000000007
20
-57.550500000000071
10
-432.48750000000007
20
-57.550500000000071
42
0.41421356237298057
10
-432.73750000000007
20
-57.800500000000071
10
-432.73750000000013
20
-58.800500000000049
42
-0.41421356237309503
10
-432.98750000000013
20
-59.050500000000056
10
-446.48750000000013
20
-59.050500000000035
42
-0.41421356237309503
10
-446.73750000000013
20
-58.800500000000049
10
-446.73750000000013
20
-25.424500000000062
42
-0.41421356237309503
10
-446.48750000000013
20
-25.174500000000066
10
-432.98750000000007
20
-25.17450000000008
42
-0.41421356237309503
10
-432.73750000000007
20
-25.424500000000066
0
LWPOLYLINE
5
111
100
AcDbEntity
8
0
100
AcDbPolyline
90
8
70
1
43
0.0
10
-228.15256514068528
20
-32.549530707894782
10
-214.94757253078288
20
-29.742722881836198
42
-0.41421356237310197
10
-214.65105770789472
20
-29.935281859314781
10
-211.84424988183622
20
-43.140274469217147
42
-0.41421356237308704
10
-212.03680885931479
20
-43.436789292105317
10
-225.24180146921711
20
-46.243597118163898
42
-0.41421356237310308
10
-225.53831629210526
20
-46.051038140685314
10
-228.34512411816388
20
-32.846045530782952
42
-0.41421356237309059
0
LWPOLYLINE
5
112
100
AcDbEntity
8
0
100
AcDbPolyline
90
8
70
1
43
0.0
10
-427.68750000000006
20
-96.487500000000068
10
-427.68750000000006
20
-82.987500000000068
42
-0.41421356237309503
10
-427.43750000000006
20
-82.737500000000068
10
-413.93750000000006
20
-82.737500000000068
42
-0.41421356237309503
10
-413.68750000000006
20
-82.987500000000054
10
-413.68750000000011
20
-96.487500000000054
42
-0.41421356237309503
10
-413.93750000000011
20
-96.737500000000054
10
-427.43750000000006
20
-96.737500000000054
42
-0.41421356237309503
0
LWPOLYLINE
5
113
100
AcDbEntity
8
0
100
AcDbPolyline
90
8
70
1
43
0.0
10
-351.23125000000016
20
-53.081250000000047
10
-364.73124999999993
20
-53.081250000000047
42
-0.41421356237309503
10
-364.98124999999993
20
-52.831250000000061
10
-364.98124999999993
20
-39.331250000000047
42
-0.41421356237309503
10
-364.73124999999993
20
-39.081250000000047
10
-351.2312500000001
20
-39.081250000000047
42
-0.41421356237309503
10
-350.9812500000001
20
-39.331250000000033
10
-350.98125000000016
20
-52.831250000000047
42
-0.41421356237309503
0
LWPOLYLINE
5
114
100
AcDbEntity
8
0
100
AcDbPolyline
90
8
70
1
43
0.0
10
-101.74325688184604
20
-64.535006530767049
10
-104.55006470787927
20
-77.739999140674826
42
-0.41421356237308488
10
-104.84657953076706
20
-77.932558118153977
10
-118.05157214067485
20
-75.125750292120756
42
-0.4142135623730972
10
-118.24413111815402
20
-74.82923546923297
10
-115.43732329212078
20
-61.624242859325228
42
-0.41421356237308488
10
-115.14080846923299
20
-61.43168388184607
10
-101.9358158593252
20
-64.238491707879263
42
-0.41421356237309503
0
LWPOLYLINE
5
115
100
AcDbEntity
8
0
100
AcDbPolyline
90
8
70
1
43
0.0
10
-306.24374999999998
20
-140.14375000000007
10
-306.24374999999998
20
-126.64375000000005
42
-0.41421356237309503
10
-305.99375000000003
20
-126.39375000000004
10
-292.49374999999998
20
-126.39375000000004
42
-0.41421356237309503
10
-292.24375000000003
20
-126.64375000000004
10
-292.24375000000003
20
-140.14375000000007
42
-0.41421356237309503
10
-292.49374999999998
20
-140.39375000000007
10
-305.99375000000003
20
-140.39375000000007
42
-0.41421356237309503
0
LWPOLYLINE
5
116
100
AcDbEntity
8
0
100
AcDbPolyline
90
8
70
1
43
0.0
10
-208.30002529210532
20
-81.33810314068532
10
-211.10683311816382
20
-68.133110530782929
42
-0.41421356237308704
10
-210.91427414068522
20
-67.836595707894759
10
-197.7092815307829
20
-65.029787881836199
42
-0.41421356237310308
10
-197.41276670789475
20
-65.222346859314783
10
-194.60595888183616
20
-78.427339469217159
42
-0.41421356237308554
10
-194.79851785931473
20
-78.723854292105329
10
-208.00351046921719
20
-81.530662118163917
42
-0.41421356237311541
0
LWPOLYLINE
5
117
100
AcDbEntity
8
0
100
AcDbPolyline
90
8
70
1
43
0.0
10
-311.54374999999993
20
-140.39375000000007
10
-325.0437500000001
20
-140.39375000000007
42
-0.41421356237309503
10
-325.2937500000001
20
-140.14375000000007
10
-325.2937500000001
20
-126.64375000000005
42
-0.41421356237309503
10
-325.0437500000001
20
-126.39375000000004
10
-311.54374999999993
20
-126.39375000000004
42
-0.41421356237309503
10
-311.29374999999993
20
-126.64375000000004
10
-311.29374999999993
20
-140.14375000000007
42
-0.41421356237309503
0
LWPOLYLINE
5
118
100
AcDbEntity
8
0
100
AcDbPolyline
90
8
70
1
43
0.0
10
-216.04647770789484
20
-69.183064859314726
10
-213.23966988183611
20
-82.388057469217131
42
-0.41421356237308332
10
-213.43222885931468
20
-82.684572292105273
10
-226.63722146921711
20
-85.491380118163931
42
-0.41421356237309503
10
-226.93373629210527
20
-85.298821140685348
10
-229.74054411816388
20
-72.093828530782972
42
-0.41421356237308704
10
-229.54798514068531
20
-71.797313707894801
10
-216.34299253078299
20
-68.990505881836143
42
-0.41421356237310525
0
LWPOLYLINE
5
119
100
AcDbEntity
8
0
100
AcDbPolyline
90
8
70
1
43
0.0
10
-46.687499999999957
20
-140.14375000000004
10
-46.687499999999957
20
-126.64375000000001
42
-0.41421356237309503
10
-46.437499999999957
20
-126.39375000000001
10
-32.937500000000043
20
-126.39375
42
-0.41421356237309503
10
-32.687500000000043
20
-126.64375
10
-32.687500000000043
20
-140.14375000000004
42
-0.41421356237309503
10
-32.937500000000043
20
-140.39375000000004
10
-46.437499999999957
20
-140.39375000000004
42
-0.41421356237309503
0
CIRCLE
5
120
100
AcDbEntity
8
0
100
AcDbCircle
10
-25.575250000000011
20
-147.99724999999998
30
0
40
0.87500000000000355
210
0
220
0
230
1
0
LWPOLYLINE
5
121
100
AcDbEntity
8
0
100
AcDbPolyline
90
8
70
1
43
0.0
10
-170.34423346923296
20
-69.173422881846079
10
-157.13924085932518
20
-71.980230707879272
42
-0.41421356237309287
10
-156.94668188184602
20
-72.276745530767059
10
-159.75348970787925
20
-85.48173814067485
42
-0.41421356237309503
10
-160.05000453076704
20
-85.674297118154016
10
-173.25499714067485
20
-82.867489292120794
42
-0.41421356237307466
10
-173.44755611815398
20
-82.570974469232993
10
-170.64074829212078
20
-69.365981859325231
42
-0.41421356237311541
0
LWPOLYLINE
5
122
100
AcDbEntity
8
0
100
AcDbPolyline
90
8
70
1
43
0.0
10
-142.23398111815396
20
-50.254447469232971
10
-139.42717329212076
20
-37.049454859325188
42
-0.41421356237308488
10
-139.13065846923297
20
-36.856895881846029
10
-125.92566585932518
20
-39.663703707879293
42
-0.41421356237310009
10
-125.73310688184603
20
-39.960218530767094
10
-128.53991470787938
20
-53.165211140674835
42
-0.41421356237308488
10
-128.83642953076716
20
-53.357770118153987
10
-142.0414221406748
20
-50.550962292120758
42
-0.41421356237309503
0
CIRCLE
5
123
100
AcDbEntity
8
0
100
AcDbCircle
10
-305.72337500000009
20
-12.497250000000076
30
0
40
0.87499999999998579
210
0
220
-0
230
1
0
LWPOLYLINE
5
124
100
AcDbEntity
8
0
100
AcDbPolyline
90
8
70
1
43
0.0
10
-127.72067146923297
20
-97.708928881846077
10
-114.51567885932519
20
-100.5157367078793
42
-0.41421356237309503
10
-114.32311988184603
20
-100.81225153076709
10
-117.12992770787928
20
-114.01724414067486
42
-0.41421356237307905
10
-117.42644253076706
20
-114.209803118154
10
-130.63143514067485
20
-111.40299529212078
42
-0.41421356237309503
10
-130.82399411815399
20
-111.10648046923299
10
-128.01718629212073
20
-97.901487859325215
42
-0.41421356237308332
0
LWPOLYLINE
5
125
100
AcDbEntity
8
0
100
AcDbPolyline
90
8
70
1
43
0.0
10
-316.3125
20
-63.687500000000014
10
-302.8125
20
-63.687500000000028
42
-0.41421356237309503
10
-302.5625
20
-63.937500000000014
10
-302.5625
20
-77.437500000000043
42
-0.41421356237309503
10
-302.8125
20
-77.687500000000057
10
-316.3125
20
-77.687500000000028
42
-0.41421356237309503
10
-316.5625
20
-77.437500000000043
10
-316.5625
20
-63.937500000000014
42
-0.41421356237309503
0
LWPOLYLINE
5
126
100
AcDbEntity
8
0
100
AcDbPolyline
90
8
70
1
43
0.0
10
-50.150000000000006
20
-63.937499999999979
10
-50.150000000000006
20
-77.437500000000014
42
-0.41421356237309503
10
-50.400000000000006
20
-77.687500000000014
10
-68.662499999999994
20
-77.6875
42
-0.41421356237309503
10
-68.912499999999994
20
-77.4375
10
-68.912499999999994
20
-63.937500000000014
42
-0.41421356237309503
10
-68.662499999999994
20
-63.687500000000014
10
-50.400000000000006
20
-63.687499999999979
42
-0.41421356237309503
0
LWPOLYLINE
5
127
100
AcDbEntity
8
0
100
AcDbPolyline
90
8
70
1
43
0.0
10
-174.14526611815393
20
-62.947082469232932
10
-171.33845829212075
20
-49.742089859325205
42
-0.41421356237312557
10
-171.04194346923293
20
-49.549530881846032
10
-157.83695085932521
20
-52.356338707879274
42
-0.41421356237309503
10
-157.64439188184605
20
-52.652853530767061
10
-160.45119970787925
20
-65.857846140674837
42
-0.41421356237311541
10
-160.74771453076707
20
-66.050405118154004
10
-173.95270714067479
20
-63.243597292120732
42
-0.41421356237308488
0
LWPOLYLINE
5
128
100
AcDbEntity
8
0
100
AcDbPolyline
90
8
70
1
43
0.0
10
-120.16074888183826
20
-125.95957353077956
10
-122.9675567078915
20
-139.16456614068309
42
-0.41421356237309503
10
-123.26407153077959
20
-139.3571251181618
10
-136.46906414068303
20
-136.55031729210859
42
-0.41421356237309503
10
-136.66162311816177
20
-136.25380246922049
10
-133.85481529210853
20
-123.048809859317
42
-0.41421356237309503
10
-133.55830046922046
20
-122.85625088183828
10
-120.35330785931698
20
-125.66305870789148
42
-0.41421356237309503
0
LWPOLYLINE
5
129
100
AcDbEntity
8
0
100
AcDbPolyline
90
8
70
1
43
0.0
10
-87.962500000000006
20
-39.337500000000027
10
-87.96250000000002
20
-25.837500000000006
42
-0.41421356237309503
10
-87.71250000000002
20
-25.587500000000006
10
-74.21250000000002
20
-25.587500000000006
42
-0.41421356237309503
10
-73.96250000000002
20
-25.837500000000013
10
-73.96250000000002
20
-39.337500000000027
42
-0.41421356237309503
10
-74.21250000000002
20
-39.587500000000027
10
-87.712500000000006
20
-39.587500000000027
42
-0.41421356237309503
0
LWPOLYLINE
5
130
100
AcDbEntity
8
0
100
AcDbPolyline
90
8
70
1
43
0.0
10
-413.93750000000011
20
-140.39375000000007
10
-427.43750000000006
20
-140.39375000000007
42
-0.41421356237309503
10
-427.68750000000006
20
-140.14375000000007
10
-427.68750000000006
20
-126.64375000000008
42
-0.41421356237309503
10
-427.43750000000006
20
-126.39375000000008
10
-413.93750000000006
20
-126.39375000000008
42
-0.41421356237309503
10
-413.68750000000006
20
-126.64375000000007
10
-413.68750000000011
20
-140.14375000000007
42
-0.41421356237309503
0
LWPOLYLINE
5
131
100
AcDbEntity
8
0
100
AcDbPolyline
90
8
70
1
43
0.0
10
-246.78627714068534
20
-36.510247707894784
10
-233.58128453078291
20
-33.703439881836196
42
-0.41421356237310197
10
-233.28476970789472
20
-33.895998859314787
10
-230.47796188183614
20
-47.100991469217163
42
-0.4142135623730957
10
-230.67052085931471
20
-47.397506292105334
10
-243.87551346921714
20
-50.204314118163893
42
-0.41421356237310086
10
-244.17202829210532
20
-50.01175514068531
10
-246.97883611816391
20
-36.806762530782954
42
-0.41421356237309059
0
LWPOLYLINE
5
132
100
AcDbEntity
8
0
100
AcDbPolyline
90
8
70
1
43
0.0
10
-264.20116029210527
20
-93.220256140685365
10
-267.00796811816383
20
-80.015263530783017
42
-0.4142135623730957
10
-266.81540914068529
20
-79.718748707894832
10
-253.61041653078291
20
-76.911940881836188
42
-0.41421356237310308
10
-253.31390170789476
20
-77.104499859314771
10
-250.50709388183611
20
-90.309492469217147
42
-0.41421356237309503
10
-250.69965285931471
20
-90.606007292105318
10
-263.90464546921709
20
-93.412815118163934
42
-0.41421356237309503
0
LWPOLYLINE
5
133
100
AcDbEntity
8
0
100
AcDbPolyline
90
8
70
1
43
0.0
10
-285.44912114068535
20
-83.67946670789479
10
-272.24412853078297
20
-80.872658881836159
42
-0.41421356237309503
10
-271.94761370789479
20
-81.065217859314743
10
-269.14080588183606
20
-94.270210469217119
42
-0.41421356237308332
10
-269.33336485931466
20
-94.566725292105275
10
-282.53835746921715
20
-97.37353311816392
42
-0.41421356237309503
10
-282.83487229210527
20
-97.18097414068535
10
-285.64168011816389
20
-83.975981530782946
42
-0.41421356237309503
0
LWPOLYLINE
5
134
100
AcDbEntity
8
0
100
AcDbPolyline
90
8
70
1
43
0.0
10
-216.27041214068538
20
-88.450666707894783
10
-203.06541953078298
20
-85.643858881836152
42
-0.41421356237309503
10
-202.76890470789482
20
-85.836417859314736
10
-199.96209688183609
20
-99.041410469217112
42
-0.41421356237308332
10
-200.15465585931466
20
-99.337925292105268
10
-213.35964846921715
20
-102.14473311816391
42
-0.41421356237309503
10
-213.6561632921053
20
-101.95217414068534
10
-216.46297111816395
20
-88.747181530782939
42
-0.41421356237309503
0
LWPOLYLINE
5
135
100
AcDbEntity
8
0
100
AcDbPolyline
90
8
70
1
43
0.0
10
-394.6375000000001
20
-82.987500000000054
10
-394.6375000000001
20
-96.487500000000054
42
-0.41421356237309503
10
-394.8875000000001
20
-96.737500000000054
10
-408.38749999999999
20
-96.737500000000054
42
-0.41421356237309503
10
-408.63749999999993
20
-96.487500000000068
10
-408.63749999999987
20
-82.987500000000068
42
-0.41421356237309503
10
-408.38749999999993
20
-82.737500000000068
10
-394.8875000000001
20
-82.737500000000068
42
-0.41421356237309503
0
LWPOLYLINE
5
136
100
AcDbEntity
8
0
100
AcDbPolyline
90
8
70
1
43
0.0
10
-221.77327029210531
20
-130.15872414068537
10
-224.58007811816395
20
-116.95373153078296
42
-0.41421356237309503
10
-224.38751914068536
20
-116.6572167078948
10
-211.18252653078298
20
-113.85040888183617
42
-0.41421356237309503
10
-210.8860117078948
20
-114.04296785931476
10
-208.07920388183618
20
-127.24796046921711
42
-0.41421356237309503
10
-208.27176285931475
20
-127.54447529210526
10
-221.47675546921715
20
-130.35128311816393
42
-0.41421356237309503
0
LWPOLYLINE
5
137
100
AcDbEntity
8
0
100
AcDbPolyline
90
8
70
1
43
0.0
10
-119.67925788183823
20
-80.198180530779609
10
-122.48606570789153
20
-93.403173140683123
42
-0.41421356237309503
10
-122.78258053077963
20
-93.595732118161834
10
-135.98757314068308
20
-90.788924292108533
42
-0.41421356237309503
10
-136.18013211816179
20
-90.492409469220433
10
-133.37332429210849
20
-77.287416859316906
42
-0.41421356237308704
10
-133.07680946922039
20
-77.094857881838209
10
-119.87181685931695
20
-79.90166570789151
42
-0.41421356237309503
0
LWPOLYLINE
5
138
100
AcDbEntity
8
0
100
AcDbPolyline
90
8
70
1
43
0.0
10
-331.93125000000003
20
-20.281250000000057
10
-331.93125000000003
20
-33.781250000000036
42
-0.41421356237309503
10
-332.18124999999998
20
-34.031250000000036
10
-345.68125000000003
20
-34.031250000000021
42
-0.41421356237309503
10
-345.93124999999998
20
-33.781250000000036
10
-345.93124999999992
20
-20.28125000000005
42
-0.41421356237309503
10
-345.68124999999998
20
-20.03125000000005
10
-332.18124999999998
20
-20.031250000000071
42
-0.41421356237309503
0
LWPOLYLINE
5
139
100
AcDbEntity
8
0
100
AcDbPolyline
90
8
70
1
43
0.0
10
-81.106249999999989
20
-126.64375
10
-81.106249999999974
20
-140.14375000000004
42
-0.41421356237309503
10
-81.356249999999974
20
-140.39375000000004
10
-94.856249999999974
20
-140.39375000000004
42
-0.41421356237309503
10
-95.106249999999974
20
-140.14375000000004
10
-95.106249999999989
20
-126.64375000000001
42
-0.41421356237309503
10
-94.856249999999989
20
-126.39375000000001
10
-81.356249999999989
20
-126.39375
42
-0.41421356237309503
0
LWPOLYLINE
5
140
100
AcDbEntity
8
0
100
AcDbPolyline
90
8
70
1
43
0.0
10
-57.293750000000045
20
-82.987499999999983
10
-57.293750000000045
20
-96.487500000000011
42
-0.41421356237309503
10
-57.543750000000045
20
-96.737500000000011
10
-71.04374999999996
20
-96.73750000000004
42
-0.41421356237309503
10
-71.29374999999996
20
-96.48750000000004
10
-71.29374999999996
20
-82.987499999999997
42
-0.41421356237309503
10
-71.04374999999996
20
-82.737499999999997
10
-57.543750000000045
20
-82.737499999999983
42
-0.41421356237309503
0
LWPOLYLINE
5
141
100
AcDbEntity
8
0
100
AcDbPolyline
90
8
70
1
43
0.0
10
-95.106250000000045
20
-77.437500000000028
10
-95.10625000000006
20
-63.9375
42
-0.41421356237309503
10
-94.85625000000006
20
-63.687499999999993
10
-81.35625000000006
20
-63.687499999999993
42
-0.41421356237309503
10
-81.10625000000006
20
-63.9375
10
-81.106250000000045
20
-77.437500000000028
42
-0.41421356237309503
10
-81.356250000000045
20
-77.687500000000028
10
-94.856250000000045
20
-77.687500000000028
42
-0.41421356237309503
0
LWPOLYLINE
5
142
100
AcDbEntity
8
0
100
AcDbPolyline
90
4
70
1
43
0.0
10
-262.75376336940053
20
-54.217011040868684
10
-265.66452704086873
20
-40.522944630599554
10
-251.97046063059958
20
-37.612180959131393
10
-249.05969695913143
20
-51.306247369400538
0
LWPOLYLINE
5
143
100
AcDbEntity
8
0
100
AcDbPolyline
90
8
70
1
43
0.0
10
-18.650000000000034
20
-77.687500000000014
10
-32.15000000000002
20
-77.6875
42
-0.41421356237309503
10
-32.40000000000002
20
-77.437500000000014
10
-32.40000000000002
20
-63.937499999999979
42
-0.41421356237309503
10
-32.15000000000002
20
-63.687499999999979
10
-18.650000000000034
20
-63.687499999999986
42
-0.41421356237309503
10
-18.400000000000034
20
-63.937499999999979
10
-18.400000000000031
20
-77.437500000000014
42
-0.41421356237309503
0
LWPOLYLINE
5
144
100
AcDbEntity
8
0
100
AcDbPolyline
90
8
70
1
43
0.0
10
-86.118749999999977
20
-58.637500000000024
10
-99.618750000000048
20
-58.637500000000024
42
-0.41421356237309503
10
-99.868750000000048
20
-58.387500000000017
10
-99.868750000000063
20
-44.887500000000038
42
-0.41421356237309503
10
-99.618750000000063
20
-44.637500000000038
10
-86.118749999999991
20
-44.637500000000038
42
-0.41421356237309503
10
-85.868749999999991
20
-44.887500000000038
10
-85.868749999999977
20
-58.387500000000017
42
-0.41421356237309503
0
LWPOLYLINE
5
145
100
AcDbEntity
8
0
100
AcDbPolyline
90
8
70
1
43
0.0
10
-206.03191170789472
20
-47.578814859314733
10
-203.22510388183622
20
-60.78380746921713
42
-0.41421356237308704
10
-203.41766285931482
20
-61.080322292105294
10
-216.62265546921714
20
-63.88713011816386
42
-0.41421356237310308
10
-216.91917029210529
20
-63.694571140685277
10
-219.72597811816388
20
-50.489578530782914
42
-0.4142135623730957
10
-219.53341914068531
20
-50.193063707894737
10
-206.32842653078288
20
-47.386255881836149
42
-0.41421356237310086
0
LWPOLYLINE
5
146
100
AcDbEntity
8
0
100
AcDbPolyline
90
8
70
1
43
0.0
10
-350.9812500000001
20
-20.281250000000021
10
-350.98125000000016
20
-33.781250000000036
42
-0.41421356237309503
10
-351.23125000000016
20
-34.031250000000036
10
-364.73124999999993
20
-34.031250000000036
42
-0.41421356237309503
10
-364.98124999999993
20
-33.78125000000005
10
-364.98124999999993
20
-20.281250000000032
42
-0.41421356237309503
10
-364.73124999999993
20
-20.031250000000036
10
-351.2312500000001
20
-20.031250000000036
42
-0.41421356237309503
0
LWPOLYLINE
5
147
100
AcDbEntity
8
0
100
AcDbPolyline
90
8
70
1
43
0.0
10
-413.93750000000011
20
-58.63750000000006
10
-427.43750000000011
20
-58.637500000000038
42
-0.41421356237309503
10
-427.68750000000011
20
-58.387500000000053
10
-427.68750000000006
20
-44.887500000000074
42
-0.41421356237309503
10
-427.43750000000006
20
-44.637500000000074
10
-413.93750000000006
20
-44.637500000000088
42
-0.41421356237309503
10
-413.68750000000006
20
-44.887500000000074
10
-413.68750000000011
20
-58.387500000000053
42
-0.41421356237309503
0
LWPOLYLINE
5
148
100
AcDbEntity
8
0
100
AcDbPolyline
90
8
70
1
43
0.0
10
-427.43750000000006
20
-63.687500000000028
10
-413.93750000000006
20
-63.68750000000005
42
-0.41421356237309503
10
-413.68750000000006
20
-63.937500000000036
10
-413.68750000000011
20
-77.437500000000071
42
-0.41421356237309503
10
-413.93750000000011
20
-77.687500000000071
10
-427.43750000000006
20
-77.687500000000057
42
-0.41421356237309503
10
-427.68750000000006
20
-77.437500000000071
10
-427.68750000000006
20
-63.937500000000036
42
-0.41421356237309503
0
LWPOLYLINE
5
149
100
AcDbEntity
8
0
100
AcDbPolyline
90
8
70
1
43
0.0
10
-193.40309685927275
20
-39.476072292043177
10
-206.60808946915353
20
-42.282880118203551
42
-0.41421356237310736
10
-206.90460429204319
20
-42.090321140727241
10
-209.71141211820353
20
-28.885328530846461
42
-0.41421356237309243
10
-209.51885314072723
20
-28.58881370795681
10
-196.31386053084645
20
-25.782005881796508
42
-0.41421356237309903
10
-196.01734570795682
20
-25.974564859272814
10
-193.21053788179643
20
-39.179557469153529
42
-0.41421356237309398
0
LWPOLYLINE
5
150
100
AcDbEntity
8
0
100
AcDbPolyline
90
8
70
1
43
0.0
10
-427.68750000000006
20
-115.53750000000008
10
-427.68750000000006
20
-102.03750000000005
42
-0.41421356237309503
10
-427.43750000000006
20
-101.78750000000005
10
-413.93750000000006
20
-101.78750000000005
42
-0.41421356237309503
10
-413.68750000000006
20
-102.03750000000002
10
-413.68750000000011
20
-115.53750000000007
42
-0.41421356237309503
10
-413.93750000000011
20
-115.78750000000007
10
-427.43750000000006
20
-115.78750000000007
42
-0.41421356237309503
0
CIRCLE
5
151
100
AcDbEntity
8
0
100
AcDbCircle
10
-25.575250000000011
20
-12.497250000000019
30
0
40
0.874999999999999
210
0
220
0
230
1
0
CIRCLE
5
152
100
AcDbEntity
8
0
100
AcDbCircle
10
-439.56225000000018
20
-147.99725000000009
30
0
40
0.87499999999998579
210
0
220
0
230
1
0
LWPOLYLINE
5
153
100
AcDbEntity
8
0
100
AcDbPolyline
90
8
70
1
43
0.0
10
-120.49694646923292
20
-40.817613881846043
10
-107.2919538593252
20
-43.624421707879264
42
-0.4142135623730972
10
-107.09939488184604
20
-43.920936530767058
10
-109.90620270787927
20
-57.125929140674849
42
-0.41421356237308488
10
-110.20271753076706
20
-57.318488118154001
10
-123.40771014067485
20
-54.511680292120744
42
-0.41421356237310736
10
-123.60026911815402
20
-54.215165469232943
10
-120.79346129212071
20
-41.010172859325202
42
-0.41421356237308488
0
LWPOLYLINE
5
154
100
AcDbEntity
8
0
100
AcDbPolyline
90
8
70
1
43
0.0
10
-47.76875000000004
20
-25.837499999999991
10
-47.76875000000004
20
-39.337500000000013
42
-0.41421356237309503
10
-48.01875000000004
20
-39.587500000000013
10
-61.518750000000026
20
-39.587500000000013
42
-0.41421356237309503
10
-61.768750000000026
20
-39.337500000000006
10
-61.768750000000026
20
-25.837499999999988
42
-0.41421356237309503
10
-61.518750000000026
20
-25.587499999999991
10
-48.01875000000004
20
-25.587499999999991
42
-0.41421356237309503
0
LWPOLYLINE
5
155
100
AcDbEntity
8
0
100
AcDbPolyline
90
8
70
1
43
0.0
10
-18.400000000000034
20
-25.837499999999991
10
-18.400000000000034
20
-39.337500000000013
42
-0.41421356237309503
10
-18.650000000000034
20
-39.587500000000013
10
-32.15000000000002
20
-39.587500000000006
42
-0.41421356237309503
10
-32.40000000000002
20
-39.337500000000006
10
-32.400000000000013
20
-25.837499999999988
42
-0.41421356237309503
10
-32.15000000000002
20
-25.587499999999991
10
-18.650000000000034
20
-25.587499999999995
42
-0.41421356237309503
0
LWPOLYLINE
5
156
100
AcDbEntity
8
0
100
AcDbPolyline
90
8
70
1
43
0.0
10
-302.8125
20
-39.587500000000048
10
-316.3125
20
-39.587500000000027
42
-0.41421356237309503
10
-316.5625
20
-39.337500000000041
10
-316.5625
20
-25.837500000000023
42
-0.41421356237309503
10
-316.3125
20
-25.587500000000027
10
-302.8125
20
-25.587500000000041
42
-0.41421356237309503
10
-302.5625
20
-25.837500000000027
10
-302.5625
20
-39.337500000000048
42
-0.41421356237309503
0
LWPOLYLINE
5
157
100
AcDbEntity
8
0
100
AcDbPolyline
90
8
70
1
43
0.0
10
-335.90000000000009
20
-82.987500000000011
10
-335.90000000000009
20
-96.487500000000054
42
-0.41421356237309503
10
-336.15000000000009
20
-96.737500000000054
10
-349.65000000000003
20
-96.737500000000054
42
-0.41421356237309503
10
-349.90000000000003
20
-96.487500000000068
10
-349.90000000000003
20
-82.98750000000004
42
-0.41421356237309503
10
-349.65000000000003
20
-82.73750000000004
10
-336.15000000000009
20
-82.73750000000004
42
-0.41421356237309503
0
LWPOLYLINE
5
158
100
AcDbEntity
8
0
100
AcDbPolyline
90
8
70
1
43
0.0
10
-272.82030629210533
20
-75.576724140685315
10
-275.62711411816389
20
-62.371731530782959
42
-0.41421356237308554
10
-275.43455514068535
20
-62.075216707894796
10
-262.22956253078291
20
-59.268408881836208
42
-0.41421356237310086
10
-261.93304770789473
20
-59.460967859314799
10
-259.12623988183617
20
-72.665960469217168
42
-0.4142135623730957
10
-259.31879885931471
20
-72.962475292105339
10
-272.52379146921714
20
-75.769283118163898
42
-0.41421356237310086
0
LWPOLYLINE
5
159
100
AcDbEntity
8
0
100
AcDbPolyline
90
8
70
1
43
0.0
10
-120.37696788184606
20
-60.574289530767054
10
-123.18377570787929
20
-73.779282140674852
42
-0.41421356237308488
10
-123.48029053076708
20
-73.971841118154003
10
-136.68528314067487
20
-71.165033292120754
42
-0.41421356237310736
10
-136.87784211815404
20
-70.868518469232953
10
-134.07103429212074
20
-57.663525859325226
42
-0.41421356237308488
10
-133.77451946923293
20
-57.470966881846067
10
-120.56952685932522
20
-60.27777470787926
42
-0.41421356237309503
0
LWPOLYLINE
5
160
100
AcDbEntity
8
0
100
AcDbPolyline
90
8
70
1
43
0.0
10
-76.593749999999986
20
-115.78749999999999
10
-90.093750000000043
20
-115.78750000000001
42
-0.41421356237309503
10
-90.343750000000043
20
-115.53750000000001
10
-90.343750000000057
20
-102.03750000000001
42
-0.41421356237309503
10
-90.093750000000057
20
-101.78750000000001
10
-76.593749999999986
20
-101.78749999999999
42
-0.41421356237309503
10
-76.343749999999986
20
-102.03749999999999
10
-76.343749999999986
20
-115.53749999999999
42
-0.41421356237309503
0
LWPOLYLINE
5
161
100
AcDbEntity
8
0
100
AcDbPolyline
90
8
70
1
43
0.0
10
-23.162500000000037
20
-82.987499999999983
10
-23.162500000000037
20
-96.487500000000011
42
-0.41421356237309503
10
-23.412500000000041
20
-96.737500000000011
10
-36.912500000000023
20
-96.73750000000004
42
-0.41421356237309503
10
-37.162500000000023
20
-96.48750000000004
10
-37.162500000000023
20
-82.987499999999997
42
-0.41421356237309503
10
-36.912500000000023
20
-82.737499999999997
10
-23.412500000000037
20
-82.737499999999983
42
-0.41421356237309503
0
LWPOLYLINE
5
162
100
AcDbEntity
8
0
100
AcDbPolyline
90
8
70
1
43
0.0
10
-408.38749999999993
20
-101.78750000000005
10
-394.8875000000001
20
-101.78750000000005
42
-0.41421356237309503
10
-394.6375000000001
20
-102.03750000000002
10
-394.6375000000001
20
-115.53750000000002
42
-0.41421356237309503
10
-394.8875000000001
20
-115.78750000000002
10
-408.38749999999999
20
-115.78750000000002
42
-0.41421356237309503
10
-408.63749999999993
20
-115.53750000000005
10
-408.63749999999987
20
-102.03750000000005
42
-0.41421356237309503
0
LWPOLYLINE
5
163
100
AcDbEntity
8
0
100
AcDbPolyline
90
8
70
1
43
0.0
10
-375.58749999999998
20
-102.03750000000002
10
-375.58749999999998
20
-115.53750000000002
42
-0.41421356237309503
10
-375.83749999999998
20
-115.78750000000002
10
-389.33750000000003
20
-115.78750000000002
42
-0.41421356237309503
10
-389.58750000000003
20
-115.53750000000005
10
-389.58750000000003
20
-102.03750000000005
42
-0.41421356237309503
10
-389.33750000000003
20
-101.78750000000005
10
-375.83749999999998
20
-101.78750000000005
42
-0.41421356237309503
0
LWPOLYLINE
5
164
100
AcDbEntity
8
0
100
AcDbPolyline
90
8
70
1
43
0.0
10
-286.94375000000008
20
-126.39375000000004
10
-273.44375000000002
20
-126.39375000000004
42
-0.41421356237309503
10
-273.19375000000002
20
-126.64375000000004
10
-273.19375000000002
20
-140.14375000000007
42
-0.41421356237309503
10
-273.44375000000002
20
-140.39375000000007
10
-286.94375000000008
20
-140.39375000000007
42
-0.41421356237309503
10
-287.19375000000008
20
-140.14375000000007
10
-287.19375000000008
20
-126.64375000000005
42
-0.41421356237309503
0
LWPOLYLINE
5
165
100
AcDbEntity
8
0
100
AcDbPolyline
90
8
70
1
43
0.0
10
-160.86769211815397
20
-46.293729469232964
10
-158.06088429212076
20
-33.088736859325188
42
-0.41421356237308488
10
-157.76436946923297
20
-32.896177881846036
10
-144.5593768593252
20
-35.702985707879307
42
-0.41421356237310009
10
-144.36681788184603
20
-35.999500530767101
10
-147.17362570787924
20
-49.204493140674835
42
-0.41421356237308488
10
-147.47014053076703
20
-49.397052118153994
10
-160.67513314067483
20
-46.590244292120758
42
-0.41421356237308488
0
LWPOLYLINE
5
166
100
AcDbEntity
8
0
100
AcDbPolyline
90
8
70
1
43
0.0
10
-240.68508685931479
20
-69.001756292105313
10
-253.89007946921711
20
-71.808564118163886
42
-0.41421356237310308
10
-254.18659429210527
20
-71.616005140685303
10
-256.99340211816389
20
-58.411012530782919
42
-0.41421356237308554
10
-256.80084314068529
20
-58.114497707894756
10
-243.59585053078288
20
-55.307689881836168
42
-0.41421356237310086
10
-243.29933570789473
20
-55.500248859314752
10
-240.49252788183622
20
-68.705241469217157
42
-0.41421356237308704
0
LWPOLYLINE
5
167
100
AcDbEntity
8
0
100
AcDbPolyline
90
8
70
1
43
0.0
10
-389.58750000000003
20
-96.487500000000068
10
-389.58750000000003
20
-82.98750000000004
42
-0.41421356237309503
10
-389.33750000000003
20
-82.73750000000004
10
-375.83749999999998
20
-82.73750000000004
42
-0.41421356237309503
10
-375.58749999999998
20
-82.987500000000011
10
-375.58749999999998
20
-96.487500000000054
42
-0.41421356237309503
10
-375.83749999999998
20
-96.737500000000054
10
-389.33750000000003
20
-96.737500000000054
42
-0.41421356237309503
0
LWPOLYLINE
5
168
100
AcDbEntity
8
0
100
AcDbPolyline
90
8
70
1
43
0.0
10
-279.00000000000006
20
-118.16875000000007
10
-292.5
20
-118.16875000000007
42
-0.41421356237309503
10
-292.75
20
-117.91875000000007
10
-292.75
20
-104.41875000000005
42
-0.41421356237309503
10
-292.5
20
-104.16875000000005
10
-279.00000000000006
20
-104.16875000000005
42
-0.41421356237309503
10
-278.75000000000006
20
-104.41875000000003
10
-278.75000000000006
20
-117.91875000000006
42
-0.41421356237309503
0
LWPOLYLINE
5
169
100
AcDbEntity
8
0
100
AcDbPolyline
90
8
70
1
43
0.0
10
-176.39808146923292
20
-28.935460881846048
10
-163.1930888593252
20
-31.742268707879305
42
-0.41421356237308593
10
-163.00052988184606
20
-32.038783530767105
10
-165.80733770787927
20
-45.243776140674825
42
-0.41421356237312557
10
-166.10385253076709
20
-45.436335118153998
10
-179.3088451406748
20
-42.629527292120798
42
-0.41421356237308488
10
-179.50140411815394
20
-42.333012469232997
10
-176.69459629212074
20
-29.128019859325207
42
-0.41421356237311646
0
LWPOLYLINE
5
170
100
AcDbEntity
8
0
100
AcDbPolyline
90
8
70
1
43
0.0
10
-370.03125000000006
20
-20.281250000000071
10
-370.03125000000006
20
-33.781250000000057
42
-0.41421356237309503
10
-370.28125
20
-34.031250000000057
10
-383.78125000000006
20
-34.031250000000036
42
-0.41421356237309503
10
-384.03125
20
-33.78125000000005
10
-384.03124999999994
20
-20.281250000000068
42
-0.41421356237309503
10
-383.78125
20
-20.031250000000071
10
-370.28125
20
-20.031250000000085
42
-0.41421356237309503
0
LWPOLYLINE
5
171
100
AcDbEntity
8
0
100
AcDbPolyline
90
8
70
1
43
0.0
10
-234.68018970789478
20
-73.143781859314743
10
-231.87338188183605
20
-86.348774469217091
42
-0.41421356237308332
10
-232.06594085931465
20
-86.645289292105247
10
-245.27093346921714
20
-89.45209711816392
42
-0.41421356237309503
10
-245.5674482921053
20
-89.259538140685351
10
-248.37425611816394
20
-76.05454553078296
42
-0.41421356237308704
10
-248.18169714068534
20
-75.75803070789479
10
-234.97670453078297
20
-72.951222881836173
42
-0.41421356237309076
0
LWPOLYLINE
5
172
100
AcDbEntity
8
0
100
AcDbPolyline
90
8
70
1
43
0.0
10
-375.83749999999998
20
-58.63750000000006
10
-389.33750000000003
20
-58.637500000000038
42
-0.41421356237309503
10
-389.58750000000003
20
-58.387500000000053
10
-389.58750000000003
20
-44.887500000000074
42
-0.41421356237309503
10
-389.33750000000003
20
-44.637500000000074
10
-375.83749999999998
20
-44.637500000000088
42
-0.41421356237309503
10
-375.58749999999998
20
-44.887500000000074
10
-375.58749999999998
20
-58.387500000000053
42
-0.41421356237309503
0
LWPOLYLINE
5
173
100
AcDbEntity
8
0
100
AcDbPolyline
90
8
70
1
43
0.0
10
-394.8875000000001
20
-77.687500000000071
10
-408.38749999999999
20
-77.687500000000057
42
-0.41421356237309503
10
-408.63749999999993
20
-77.437500000000071
10
-408.63749999999987
20
-63.937500000000036
42
-0.41421356237309503
10
-408.38749999999993
20
-63.687500000000028
10
-394.8875000000001
20
-63.68750000000005
42
-0.41421356237309503
10
-394.6375000000001
20
-63.937500000000036
10
-394.6375000000001
20
-77.437500000000071
42
-0.41421356237309503
0
LWPOLYLINE
5
174
100
AcDbEntity
8
0
100
AcDbPolyline
90
8
70
1
43
0.0
10
-312.33749999999998
20
-96.737500000000054
10
-325.83750000000003
20
-96.737500000000054
42
-0.41421356237309503
10
-326.08749999999998
20
-96.487500000000068
10
-326.08749999999992
20
-82.98750000000004
42
-0.41421356237309503
10
-325.83749999999998
20
-82.73750000000004
10
-312.33749999999998
20
-82.73750000000004
42
-0.41421356237309503
10
-312.08749999999998
20
-82.987500000000011
10
-312.08749999999998
20
-96.487500000000054
42
-0.41421356237309503
0
LWPOLYLINE
5
175
100
AcDbEntity
8
0
100
AcDbPolyline
90
8
70
1
43
0.0
10
-28.175000000000043
20
-115.78749999999999
10
-41.675000000000026
20
-115.78750000000001
42
-0.41421356237309503
10
-41.925000000000026
20
-115.53750000000001
10
-41.925000000000026
20
-102.03750000000001
42
-0.41421356237309503
10
-41.675000000000026
20
-101.78750000000001
10
-28.17500000000004
20
-101.78749999999999
42
-0.41421356237309503
10
-27.92500000000004
20
-102.03749999999999
10
-27.92500000000004
20
-115.53749999999999
42
-0.41421356237309503
0
LWPOLYLINE
5
176
100
AcDbEntity
8
0
100
AcDbPolyline
90
8
70
1
43
0.0
10
-243.02123014068536
20
-120.61793370789482
10
-229.81623753078293
20
-117.81112588183615
42
-0.41421356237309503
10
-229.51972270789474
20
-118.00368485931472
10
-226.71291488183613
20
-131.20867746921709
42
-0.41421356237309503
10
-226.9054738593147
20
-131.50519229210528
10
-240.11046646921716
20
-134.31200011816395
42
-0.41421356237309503
10
-240.40698129210534
20
-134.11944114068535
10
-243.21378911816393
20
-120.91444853078298
42
-0.41421356237308332
0
CIRCLE
5
177
100
AcDbEntity
8
0
100
AcDbCircle
10
-330.99375000000009
20
-89.737500000000068
30
0
40
3.75
210
0
220
0
230
1
0
LWPOLYLINE
5
178
100
AcDbEntity
8
0
100
AcDbPolyline
90
8
70
1
43
0.0
10
-114.15625000000006
20
-140.14375000000004
10
-114.15625000000007
20
-126.64375000000001
42
-0.41421356237309503
10
-113.90625000000007
20
-126.39375000000001
10
-100.40625
20
-126.39375
42
-0.41421356237309503
10
-100.15625
20
-126.64375
10
-100.15624999999999
20
-140.14375000000004
42
-0.41421356237309503
10
-100.40624999999999
20
-140.39375000000004
10
-113.90625000000006
20
-140.39375000000004
42
-0.41421356237309503
0
LWPOLYLINE
5
179
100
AcDbEntity
8
0
100
AcDbPolyline
90
8
70
1
43
0.0
10
-235.55288229210527
20
-67.6552881406853
10
-238.35969011816385
20
-54.450295530782917
42
-0.4142135623730957
10
-238.16713114068529
20
-54.15378070789474
10
-224.96213853078291
20
-51.346972881836173
42
-0.41421356237310308
10
-224.66562370789475
20
-51.539531859314764
10
-221.85881588183616
20
-64.74452446921714
42
-0.4142135623730957
10
-222.05137485931473
20
-65.04103929210531
10
-235.25636746921708
20
-67.847847118163884
42
-0.41421356237310308
0
LWPOLYLINE
5
180
100
AcDbEntity
8
0
100
AcDbPolyline
90
8
70
1
43
0.0
10
-267.08977614068533
20
-125.73386070789482
10
-253.88478353078295
20
-122.92705288183619
42
-0.41421356237309503
10
-253.58826870789477
20
-123.11961185931477
10
-250.78146088183618
20
-136.32460446921712
42
-0.41421356237308332
10
-250.97401985931475
20
-136.62111929210528
10
-264.17901246921713
20
-139.42792711816392
42
-0.41421356237309503
10
-264.47552729210531
20
-139.23536814068535
10
-267.28233511816393
20
-126.03037553078298
42
-0.41421356237309503
0
LWPOLYLINE
5
181
100
AcDbEntity
8
0
100
AcDbPolyline
90
8
70
1
43
0.0
10
-267.93794385931471
20
-55.318943292105303
10
-281.14293646921715
20
-58.125751118163876
42
-0.41421356237310086
10
-281.43945129210528
20
-57.933192140685293
10
-284.24625911816389
20
-44.728199530782923
42
-0.4142135623730957
10
-284.05370014068529
20
-44.431684707894746
10
-270.84870753078297
20
-41.62487688183618
42
-0.41421356237310308
10
-270.55219270789479
20
-41.81743585931477
10
-267.74538488183617
20
-55.022428469217139
42
-0.41421356237308704
0
LWPOLYLINE
5
182
100
AcDbEntity
8
0
100
AcDbPolyline
90
8
70
1
43
0.0
10
-408.38749999999993
20
-126.39375000000004
10
-394.8875000000001
20
-126.39375000000004
42
-0.41421356237309503
10
-394.6375000000001
20
-126.64375000000004
10
-394.6375000000001
20
-140.14375000000007
42
-0.41421356237309503
10
-394.8875000000001
20
-140.39375000000007
10
-408.38749999999999
20
-140.39375000000007
42
-0.41421356237309503
10
-408.63749999999993
20
-140.14375000000007
10
-408.63749999999987
20
-126.64375000000005
42
-0.41421356237309503
0
LWPOLYLINE
5
183
100
AcDbEntity
8
0
100
AcDbPolyline
90
8
70
1
43
0.0
10
-432.73750000000007
20
-126.64375000000007
10
-432.73750000000013
20
-140.14375000000007
42
-0.41421356237309503
10
-432.98750000000013
20
-140.39375000000007
10
-446.48750000000007
20
-140.39375000000007
42
-0.41421356237309503
10
-446.73750000000007
20
-140.14375000000007
10
-446.73750000000007
20
-126.64375000000008
42
-0.41421356237309503
10
-446.48750000000007
20
-126.39375000000008
10
-432.98750000000007
20
-126.39375000000008
42
-0.41421356237309503
0
LWPOLYLINE
5
184
100
AcDbEntity
8
0
100
AcDbPolyline
90
12
70
1
43
0.0
10
-116.78269540834812
20
-22.139029266256436
10
-116.77908336941648
20
-22.122035959141748
10
-103.32955385932522
20
-24.980821707879265
42
-0.41421356237310009
10
-103.13699488184605
20
-25.277336530767059
10
-105.94380270787929
20
-38.482329140674835
42
-0.41421356237308998
10
-106.24031753076707
20
-38.674888118153994
10
-110.65736530117455
20
-37.736015631346234
10
-110.66097734010619
20
-37.753008938460908
10
-124.11047814067487
20
-34.894229292120784
42
-0.41421356237310009
10
-124.30303711815404
20
-34.59771446923299
10
-121.4962292921208
20
-21.392721859325199
42
-0.41421356237308488
10
-121.19971446923302
20
-21.200162881846047
0
LWPOLYLINE
5
185
100
AcDbEntity
8
0
100
AcDbPolyline
90
8
70
1
43
0.0
10
-144.2292938818382
20
-120.84364653077958
10
-147.03610170789145
20
-134.04863914068306
42
-0.41421356237309503
10
-147.33261653077955
20
-134.2411981181618
10
-160.53760914068306
20
-131.43439029210856
42
-0.41421356237309503
10
-160.73016811816177
20
-131.13787546922049
10
-157.92336029210855
20
-117.93288285931695
42
-0.41421356237309503
10
-157.62684546922046
20
-117.74032388183824
10
-144.42185285931691
20
-120.5471317078915
42
-0.41421356237309503
0
LWPOLYLINE
5
186
100
AcDbEntity
8
0
100
AcDbPolyline
90
8
70
1
43
0.0
10
-349.90000000000003
20
-140.14375000000007
10
-349.90000000000003
20
-126.64375000000005
42
-0.41421356237309503
10
-349.65000000000003
20
-126.39375000000004
10
-336.15000000000009
20
-126.39375000000004
42
-0.41421356237309503
10
-335.90000000000009
20
-126.64375000000004
10
-335.90000000000009
20
-140.14375000000007
42
-0.41421356237309503
10
-336.15000000000009
20
-140.39375000000007
10
-349.65000000000003
20
-140.39375000000007
42
-0.41421356237309503
0
LWPOLYLINE
5
187
100
AcDbEntity
8
0
100
AcDbPolyline
90
8
70
1
43
0.0
10
-154.81384411815404
20
-86.53169146923301
10
-152.0070362921208
20
-73.326698859325234
42
-0.41421356237308488
10
-151.71052146923302
20
-73.134139881846082
10
-138.50552885932524
20
-75.940947707879275
42
-0.41421356237309503
10
-138.31296988184607
20
-76.237462530767061
10
-141.11977770787928
20
-89.442455140674866
42
-0.41421356237309503
10
-141.41629253076707
20
-89.635014118154018
10
-154.62128514067487
20
-86.828206292120797
42
-0.41421356237309503
0
CIRCLE
5
188
100
AcDbEntity
8
0
100
AcDbCircle
10
-305.72337500000009
20
-147.99725000000007
30
0
40
0.87499999999998579
210
0
220
0
230
1
0
LWPOLYLINE
5
189
100
AcDbEntity
8
0
100
AcDbPolyline
90
8
70
1
43
0.0
10
-432.98750000000013
20
-115.78750000000007
10
-446.48750000000007
20
-115.78750000000007
42
-0.41421356237309503
10
-446.73750000000007
20
-115.53750000000008
10
-446.73750000000007
20
-102.03750000000005
42
-0.41421356237309503
10
-446.48750000000007
20
-101.78750000000005
10
-432.98750000000007
20
-101.78750000000005
42
-0.41421356237309503
10
-432.73750000000007
20
-102.03750000000002
10
-432.73750000000013
20
-115.53750000000007
42
-0.41421356237309503
0
LWPOLYLINE
5
190
100
AcDbEntity
8
0
100
AcDbPolyline
90
8
70
1
43
0.0
10
-234.90412414068533
20
-92.411383707894785
10
-221.69913153078295
20
-89.604575881836183
42
-0.41421356237309503
10
-221.40261670789477
20
-89.797134859314767
10
-218.59580888183618
20
-103.00212746921713
42
-0.41421356237308332
10
-218.78836785931475
20
-103.29864229210527
10
-231.99336046921712
20
-106.10545011816392
42
-0.41421356237309503
10
-232.28987529210528
20
-105.91289114068533
10
-235.09668311816392
20
-92.707898530782956
42
-0.41421356237309503
0
LWPOLYLINE
5
191
100
AcDbEntity
8
0
100
AcDbPolyline
90
8
70
1
43
0.0
10
-71.04374999999996
20
-101.78750000000001
10
-57.543750000000045
20
-101.78749999999999
42
-0.41421356237309503
10
-57.293750000000045
20
-102.03749999999999
10
-57.293750000000045
20
-115.53749999999999
42
-0.41421356237309503
10
-57.543750000000045
20
-115.78749999999999
10
-71.04374999999996
20
-115.78750000000001
42
-0.41421356237309503
10
-71.29374999999996
20
-115.53750000000001
10
-71.29374999999996
20
-102.03750000000001
42
-0.41421356237309503
0
LWPOLYLINE
5
192
100
AcDbEntity
8
0
100
AcDbPolyline
90
8
70
1
43
0.0
10
-18.400000000000034
20
-44.887500000000024
10
-18.400000000000031
20
-58.387500000000003
42
-0.41421356237309503
10
-18.650000000000034
20
-58.637500000000003
10
-32.15000000000002
20
-58.637499999999996
42
-0.41421356237309503
10
-32.40000000000002
20
-58.387500000000003
10
-32.40000000000002
20
-44.887500000000024
42
-0.41421356237309503
10
-32.15000000000002
20
-44.637500000000017
10
-18.650000000000034
20
-44.637500000000031
42
-0.41421356237309503
0
CIRCLE
5
193
100
AcDbEntity
8
0
100
AcDbCircle
10
-439.56225000000006
20
-12.49725000000006
30
0
40
0.87499999999998579
210
0
220
0
230
1
0
LWPOLYLINE
5
194
100
AcDbEntity
8
0
100
AcDbPolyline
90
24
70
1
43
0.0
10
-432.73750000000001
20
-64.524500000000074
42
0.41421356237293894
10
-432.48750000000001
20
-64.77450000000006
10
-431.73250000000007
20
-64.774500000000089
42
-0.41421356237309503
10
-431.48250000000013
20
-65.024500000000074
10
-431.48250000000013
20
-71.524500000000046
42
-0.41421356237309503
10
-431.73250000000007
20
-71.774500000000046
10
-432.48750000000007
20
-71.774500000000046
42
0.41421356237298057
10
-432.73750000000007
20
-72.024500000000046
10
-432.73750000000007
20
-88.400500000000065
42
0.41421356237294937
10
-432.48750000000001
20
-88.650500000000079
10
-431.73250000000007
20
-88.650500000000079
42
-0.41421356237309503
10
-431.48250000000013
20
-88.900500000000051
10
-431.48250000000013
20
-95.400500000000065
42
-0.41421356237309503
10
-431.73250000000007
20
-95.650500000000065
10
-432.48750000000007
20
-95.650500000000065
42
0.41421356237297013
10
-432.73750000000007
20
-95.900500000000051
10
-432.73750000000013
20
-96.900500000000051
42
-0.41421356237309503
10
-432.98750000000013
20
-97.150500000000051
10
-446.48750000000007
20
-97.150500000000051
42
-0.41421356237309503
10
-446.73750000000007
20
-96.900500000000065
10
-446.73750000000007
20
-63.524500000000074
42
-0.41421356237309503
10
-446.48750000000007
20
-63.274500000000067
10
-432.98750000000007
20
-63.274500000000089
42
-0.41421356237309503
10
-432.73750000000007
20
-63.524500000000074
0
LWPOLYLINE
5
195
100
AcDbEntity
8
0
100
AcDbPolyline
90
8
70
1
43
0.0
10
-394.8875000000001
20
-58.63750000000006
10
-408.3875000000001
20
-58.637500000000038
42
-0.41421356237309503
10
-408.6375000000001
20
-58.387500000000053
10
-408.63750000000005
20
-44.887500000000074
42
-0.41421356237309503
10
-408.38750000000005
20
-44.637500000000074
10
-394.88750000000005
20
-44.637500000000088
42
-0.41421356237309503
10
-394.63750000000005
20
-44.887500000000074
10
-394.6375000000001
20
-58.387500000000053
42
-0.41421356237309503
0
LWPOLYLINE
5
196
100
AcDbEntity
8
0
100
AcDbPolyline
90
8
70
1
43
0.0
10
-162.86300488183824
20
-116.88292853077957
10
-165.66981270789142
20
-130.08792114068311
42
-0.41421356237308637
10
-165.96632753077952
20
-130.28048011816182
10
-179.17132014068306
20
-127.47367229210859
42
-0.41421356237309503
10
-179.3638791181618
20
-127.1771574692205
10
-176.5570712921085
20
-113.972164859317
42
-0.41421356237309503
10
-176.2605564692204
20
-113.77960588183828
10
-163.05556385931695
20
-116.58641370789148
42
-0.41421356237309503
0
LWPOLYLINE
5
197
100
AcDbEntity
8
0
100
AcDbPolyline
90
8
70
1
43
0.0
10
-75.806250000000034
20
-126.39375000000001
10
-62.306250000000048
20
-126.39375
42
-0.41421356237309503
10
-62.056250000000048
20
-126.64375
10
-62.056250000000048
20
-140.14375000000004
42
-0.41421356237309503
10
-62.306250000000048
20
-140.39375000000004
10
-75.806250000000034
20
-140.39375000000004
42
-0.41421356237309503
10
-76.056250000000034
20
-140.14375000000004
10
-76.056250000000034
20
-126.64375000000001
42
-0.41421356237309503
0
LWPOLYLINE
5
198
100
AcDbEntity
8
0
100
AcDbPolyline
90
8
70
1
43
0.0
10
-109.14375
20
-104.16875000000005
10
-95.643749999999997
20
-104.16875000000003
42
-0.41421356237309503
10
-95.393749999999997
20
-104.41875000000003
10
-95.393749999999983
20
-117.91875000000003
42
-0.41421356237309503
10
-95.643749999999983
20
-118.16875000000003
10
-109.14374999999998
20
-118.16875000000005
42
-0.41421356237309503
10
-109.39374999999998
20
-117.91875000000005
10
-109.39375
20
-104.41875000000005
42
-0.41421356237309503
0
LWPOLYLINE
5
199
100
AcDbEntity
8
0
100
AcDbPolyline
90
8
70
1
43
0.0
10
-389.33750000000003
20
-63.687500000000028
10
-375.83749999999998
20
-63.68750000000005
42
-0.41421356237309503
10
-375.58749999999998
20
-63.937500000000036
10
-375.58749999999998
20
-77.437500000000071
42
-0.41421356237309503
10
-375.83749999999998
20
-77.687500000000071
10
-389.33750000000003
20
-77.687500000000057
42
-0.41421356237309503
10
-389.58750000000003
20
-77.437500000000071
10
-389.58750000000003
20
-63.937500000000036
42
-0.41421356237309503
0
CIRCLE
5
200
100
AcDbEntity
8
0
100
AcDbCircle
10
-159.41412500000007
20
-147.99725000000001
30
0
40
0.87500000000000355
210
0
220
0
230
1
0
LWPOLYLINE
5
201
100
AcDbEntity
8
0
100
AcDbPolyline
90
8
70
1
43
0.0
10
-154.69386658082422
20
-106.28836735365422
10
-167.89885919073191
20
-103.481559527621
42
-0.41421356237307466
10
-168.09141816821108
20
-103.18504470473322
10
-165.28461034217787
20
-89.980052094825453
42
-0.41421356237311541
10
-164.98809551929008
20
-89.787493117346301
10
-151.78310290938236
20
-92.594300943379523
42
-0.41421356237309503
10
-151.5905439319032
20
-92.890815766267309
10
-154.39735175793646
20
-106.09580837617509
42
-0.41421356237308332
0
LWPOLYLINE
5
202
100
AcDbEntity
8
0
100
AcDbPolyline
90
8
70
1
43
0.0
10
-149.45770611815402
20
-107.14576246923299
10
-146.65089829212079
20
-93.940769859325201
42
-0.41421356237307905
10
-146.354383469233
20
-93.748210881846049
10
-133.14939085932531
20
-96.555018707879285
42
-0.41421356237309503
10
-132.95683188184614
20
-96.851533530767071
10
-135.76363970787929
20
-110.05652614067486
42
-0.41421356237309503
10
-136.06015453076708
20
-110.24908511815403
10
-149.26514714067486
20
-107.44227729212078
42
-0.41421356237309076
0
LWPOLYLINE
5
203
100
AcDbEntity
8
0
100
AcDbPolyline
90
8
70
1
43
0.0
10
-142.1140025307671
20
-70.011123118153989
10
-155.31899514067482
20
-67.204315292120796
42
-0.41421356237309503
10
-155.51155411815398
20
-66.90780046923301
10
-152.70474629212077
20
-53.702807859325212
42
-0.41421356237308488
10
-152.40823146923299
20
-53.510248881846053
10
-139.20323885932518
20
-56.317056707879274
42
-0.41421356237310736
10
-139.01067988184602
20
-56.613571530767075
10
-141.81748770787931
20
-69.818564140674837
42
-0.41421356237308488
0
LWPOLYLINE
5
204
100
AcDbEntity
8
0
100
AcDbPolyline
90
12
70
1
43
0.0
10
-288.02006314072713
20
-25.817221707956875
10
-285.92607036494007
20
-25.372129803353729
10
-285.92974104091019
20
-25.354860630663538
10
-272.48021153084642
20
-22.496074881796506
42
-0.4142135623731012
10
-272.18369670795676
20
-22.688633859272812
10
-269.37688888179639
20
-35.893626469153581
42
-0.41421356237309398
10
-269.56944785927271
20
-36.190141292043229
10
-271.66344063505983
20
-36.635233196646404
10
-271.65976995908972
20
-36.652502369336545
10
-285.10929946915354
20
-39.511288118203581
42
-0.41421356237309903
10
-285.4058142920432
20
-39.318729140727278
10
-288.21262211820346
20
-26.11373653084652
42
-0.41421356237308887
0
LWPOLYLINE
5
205
100
AcDbEntity
8
0
100
AcDbPolyline
90
8
70
1
43
0.0
10
-256.05579085931475
20
-111.22007829210526
10
-269.26078346921707
20
-114.0268861181639
42
-0.41421356237309503
10
-269.55729829210526
20
-113.83432714068533
10
-272.36410611816399
20
-100.62933453078294
42
-0.41421356237308332
10
-272.17154714068545
20
-100.3328197078948
10
-258.9665545307829
20
-97.526011881836155
42
-0.41421356237309503
10
-258.67003970789477
20
-97.718570859314724
10
-255.86323188183616
20
-110.92356346921711
42
-0.41421356237308332
0
LWPOLYLINE
5
206
100
AcDbEntity
8
0
100
AcDbPolyline
90
8
70
1
43
0.0
10
-311.80000000000001
20
-115.53750000000005
10
-311.80000000000007
20
-102.03750000000005
42
-0.41421356237309503
10
-311.55000000000007
20
-101.78750000000005
10
-298.05000000000007
20
-101.78750000000005
42
-0.41421356237309503
10
-297.80000000000007
20
-102.03750000000002
10
-297.80000000000007
20
-115.53750000000002
42
-0.41421356237309503
10
-298.05000000000007
20
-115.78750000000002
10
-311.55000000000007
20
-115.78750000000002
42
-0.41421356237309503
0
LWPOLYLINE
5
207
100
AcDbEntity
8
0
100
AcDbPolyline
90
8
70
1
43
0.0
10
-183.62180646923295
20
-85.826775881846089
10
-170.4168138593252
20
-88.633583707879296
42
-0.41421356237307466
10
-170.22425488184606
20
-88.930098530767083
10
-173.03106270787936
20
-102.13509114067485
42
-0.41421356237310369
10
-173.32757753076717
20
-102.327650118154
10
-186.53257014067478
20
-99.520842292120776
42
-0.41421356237307466
10
-186.72512911815392
20
-99.224327469232989
10
-183.91832129212077
20
-86.019334859325255
42
-0.41421356237312401
0
LWPOLYLINE
5
208
100
AcDbEntity
8
0
100
AcDbPolyline
90
8
70
1
43
0.0
10
-389.33750000000003
20
-126.39375000000004
10
-375.83749999999998
20
-126.39375000000004
42
-0.41421356237309503
10
-375.58749999999998
20
-126.64375000000004
10
-375.58749999999998
20
-140.14375000000007
42
-0.41421356237309503
10
-375.83749999999998
20
-140.39375000000007
10
-389.33750000000003
20
-140.39375000000007
42
-0.41421356237309503
10
-389.58750000000003
20
-140.14375000000007
10
-389.58750000000003
20
-126.64375000000005
42
-0.41421356237309503
0
LWPOLYLINE
5
209
100
AcDbEntity
8
0
100
AcDbPolyline
90
66
70
1
43
0.0
10
-32.950250000000011
20
-17.497250000000015
10
-43.859877001601632
20
-17.497250000000015
42
-0.40254267324099136
10
-44.109676921537556
20
-17.257250000000028
42
0.40254267324099485
10
-50.104875000000035
20
-11.497250000000079
10
-100.10487500000004
20
-11.497250000000054
42
0.40254267324099513
10
-106.10007307846253
20
-17.257250000000031
42
-0.40254267324099136
10
-106.34987299839847
20
-17.497250000000022
10
-126.24848404255319
20
-17.497250000000022
10
-189.59837470449173
20
-3.9974999999999916
10
-197.75032624113479
20
-3.9974999999999912
10
-261.32361702127662
20
-17.497250000000044
10
-298.34837500000015
20
-17.497250000000104
42
-0.41421356237308837
10
-303.34837500000003
20
-12.497250000000076
42
0.99999999999999989
10
-308.09837500000009
20
-12.497250000000076
42
-0.41421356237310025
10
-313.09837500000009
20
-17.497250000000076
10
-358.78762700160172
20
-17.497250000000083
42
-0.40254267324099563
10
-359.0374269215377
20
-17.257250000000056
42
0.40254267324099685
10
-365.03262500000005
20
-11.497250000000129
10
-415.03262500000011
20
-11.497250000000072
42
0.40254267324099807
10
-421.02782307846257
20
-17.257250000000056
42
-0.40254267324099818
10
-421.2776229983985
20
-17.497250000000058
10
-432.18725000000006
20
-17.497250000000061
42
-0.41421356237310347
10
-437.18725000000006
20
-12.49725000000006
42
0.99999999999999989
10
-441.93725000000001
20
-12.49725000000006
42
-0.41421356237310358
10
-446.93725000000001
20
-17.497250000000037
42
0.41421356237310109
10
-449.3185000000002
20
-19.878500000000148
10
-449.31850000000009
20
-140.6160000000001
42
0.41421356237309936
10
-446.93725000000018
20
-142.99725000000012
42
-0.41421356237310231
10
-441.93725000000018
20
-147.99725000000009
42
0.99999999999999989
10
-437.18725000000018
20
-147.99725000000009
42
-0.41421356237310231
10
-432.18725000000018
20
-142.99725000000012
10
-421.2776229983985
20
-142.99725000000004
42
-0.40254267324100595
10
-421.02782307846257
20
-143.23725000000007
42
0.40254267324099924
10
-415.03262500000005
20
-148.99725000000007
10
-365.03262500000011
20
-148.99725000000007
42
0.4025426732409968
10
-359.03742692153764
20
-143.23725000000007
42
-0.40254267324100595
10
-358.78762700160166
20
-142.99725000000007
10
-313.09837500000009
20
-142.99725000000012
42
-0.41421356237309609
10
-308.09837500000009
20
-147.99725000000007
42
0.99999999999999989
10
-303.34837500000015
20
-147.99725000000007
42
-0.41421356237309609
10
-298.34837500000015
20
-142.99725000000007
10
-263.81374799839853
20
-142.99725000000004
42
-0.40254267324100429
10
-263.56394807846254
20
-143.23725000000005
42
0.40254267324099341
10
-257.56875000000008
20
-148.99725000000004
10
-207.56875000000008
20
-148.99725000000004
42
0.40254267324099335
10
-201.57355192153759
20
-143.23725000000005
42
-0.40254267324100595
10
-201.32375200160166
20
-142.99725000000004
10
-166.78912500000001
20
-142.99724999999998
42
-0.41421356237308671
10
-161.78912500000007
20
-147.99725000000001
42
0.99999999999999989
10
-157.03912500000004
20
-147.99725000000007
42
-0.4142135623730992
10
-152.03912500000007
20
-142.99725000000001
10
-106.34987299839844
20
-142.99725000000001
42
-0.40254267324100429
10
-106.10007307846251
20
-143.23725000000002
42
0.40254267324099841
10
-100.10487500000005
20
-148.99725000000001
10
-50.104875000000021
20
-148.99725000000001
42
0.40254267324099885
10
-44.10967692153757
20
-143.23725000000002
42
-0.40254267324098408
10
-43.859877001601632
20
-142.99725000000001
10
-32.950250000000025
20
-142.99724999999998
42
-0.41421356237309243
10
-27.950250000000011
20
-147.99724999999998
42
0.99999999999999989
10
-23.200249999999997
20
-147.99724999999998
42
-0.41421356237309426
10
-18.200250000000011
20
-142.99724999999998
42
0.41421356237309559
10
-15.818999999999971
20
-140.61599999999999
10
-15.818999999999974
20
-19.878500000000052
42
0.41421356237309392
10
-18.200250000000011
20
-17.497250000000019
42
-0.41421356237309553
10
-23.200250000000011
20
-12.497250000000019
42
0.99999999999999989
10
-27.950250000000011
20
-12.497250000000019
42
-0.41421356237309553
0
LWPOLYLINE
5
210
100
AcDbEntity
8
0
100
AcDbPolyline
90
24
70
1
43
0.0
10
-332.36250000000007
20
-44.637500000000053
42
0.41421356237298057
10
-332.11250000000007
20
-44.387500000000053
10
-332.11250000000001
20
-43.632500000000036
42
-0.41421356237309503
10
-331.86250000000001
20
-43.382500000000029
10
-325.36250000000007
20
-43.38250000000005
42
-0.41421356237309503
10
-325.11250000000013
20
-43.632500000000036
10
-325.11250000000013
20
-44.387500000000053
42
0.41421356237293894
10
-324.86250000000013
20
-44.637500000000045
10
-308.55000000000007
20
-44.637500000000053
42
0.4142135623731783
10
-308.30000000000007
20
-44.387500000000053
10
-308.30000000000013
20
-43.632500000000036
42
-0.41421356237309503
10
-308.05000000000013
20
-43.382500000000029
10
-301.55000000000001
20
-43.38250000000005
42
-0.41421356237309503
10
-301.30000000000001
20
-43.632500000000036
10
-301.30000000000001
20
-44.387500000000053
42
0.4142135623730534
10
-301.05000000000007
20
-44.637500000000074
10
-293.28750000000002
20
-44.637500000000074
42
-0.41421356237309503
10
-293.03750000000002
20
-44.88750000000006
10
-293.03750000000002
20
-58.387500000000038
42
-0.41421356237309503
10
-293.28750000000002
20
-58.637500000000038
10
-333.36250000000007
20
-58.637500000000024
42
-0.41421356237309503
10
-333.61250000000007
20
-58.387500000000038
10
-333.61250000000007
20
-44.88750000000006
42
-0.41421356237309503
10
-333.36250000000007
20
-44.637500000000053
0
LWPOLYLINE
5
211
100
AcDbEntity
8
0
100
AcDbPolyline
90
42
70
1
43
0.0
10
-244.62326896047546
20
-31.155799599896682
42
0.41421356237302054
10
-244.91978378336512
20
-30.963240622420358
10
-253.04167628059895
20
-32.689602165963471
10
-253.04156995908983
20
-32.690102369336557
10
-266.49109946915354
20
-35.548888118203557
42
-0.41421356237309903
10
-266.7876142920432
20
-35.356329140727254
10
-269.59442211820351
20
-22.151336530846528
42
-0.41421356237309243
10
-269.40186314072724
20
-21.854821707956877
10
-260.29570871940109
20
-19.919248834036598
10
-260.29581504091021
20
-19.918748630663512
10
-247.4277705902802
20
-17.183561346697751
10
-239.71720766043342
20
-15.53785158504148
10
-202.25024789805786
20
-7.5740034414383537
42
-0.41421356237254581
10
-201.95373307516866
20
-7.7665624189147575
10
-199.14899828939502
20
-20.961802140574974
42
-0.41421356237309243
10
-199.34155726687135
20
-21.258316963464626
10
-200.31970486760329
20
-21.466228654291314
42
0.41421356237314372
10
-200.51226384507964
20
-21.762743477180969
10
-200.35529051846507
20
-22.501244915923611
42
-0.41421356237313178
10
-200.54784949594139
20
-22.797759738813266
10
-201.75881804582562
20
-23.05515905007838
42
-0.00054274891683232904
10
-201.75790147826464
20
-23.059389647480984
10
-211.54278982343982
20
-25.139231870488544
42
-0.414213562371329
10
-211.839304646328
20
-24.946672893011947
10
-211.99717796313752
20
-24.203937333300431
42
0.4142135623731118
10
-212.29369278602715
20
-24.011378355824178
10
-223.59413757314604
20
-26.413362045223941
42
0.41421356237313683
10
-223.78669655062237
20
-26.709876868113565
10
-223.62765018367537
20
-27.458131194822187
42
-0.41421356237481344
10
-223.82020916115312
20
-27.754646017712126
10
-233.60509750632545
20
-29.8344882407191
42
-0.00070741613429604671
10
-233.60627836463317
20
-29.828971133221536
10
-234.83492956591488
20
-30.090129008057733
42
-0.4142135623730816
10
-235.13144438880275
20
-29.897570030578734
10
-235.2893177055654
20
-29.154834471053924
42
0.41421356237499046
10
-235.58583252845489
20
-28.96227549357523
10
-237.58712845550275
20
-29.387664074726274
42
0.41421356237390938
10
-237.7796874329797
20
-29.684178897616043
10
-237.62271410641515
20
-30.422680336123644
42
-0.41421356237307005
10
-237.81527308389144
20
-30.719195159013275
10
-244.17323248864875
20
-32.070621149386781
42
-0.41421356237310736
10
-244.46974731153841
20
-31.878062171910464
0
ENDSEC
0
SECTION
2
OBJECTS
0
DICTIONARY
5
C
100
AcDbDictionary
3
ACAD_GROUP
350
D
3
ACAD_MLINESTYLE
350
17
0
DICTIONARY
5
D
100
AcDbDictionary
0
DICTIONARY
5
1A
330
C
100
AcDbDictionary
0
DICTIONARY
5
17
100
AcDbDictionary
0
ENDSEC
0
EOF
